<svg width="1200" height="260" viewBox="0 0 1200 260" xmlns="http://www.w3.org/2000/svg">
  <defs>
    <linearGradient id="bg" x1="0%" y1="0%" x2="100%" y2="0%">
      <stop offset="0%" stop-color="#0b1020"/>
      <stop offset="50%" stop-color="#0f1a38"/>
      <stop offset="100%" stop-color="#0b1020"/>
    </linearGradient>
    <linearGradient id="glow" x1="0%" y1="0%" x2="100%" y2="0%">
      <stop offset="0%" stop-color="#6cf3ff"/>
      <stop offset="50%" stop-color="#ff4fd8"/>
      <stop offset="100%" stop-color="#6cf3ff"/>
    </linearGradient>
  </defs>
  <rect width="1200" height="260" fill="url(#bg)"/>
  <g stroke="url(#glow)" stroke-width="1" opacity="0.35">
    <path d="M0 40 H1200"/><path d="M0 80 H1200"/><path d="M0 120 H1200"/><path d="M0 160 H1200"/><path d="M0 200 H1200"/>
    <path d="M80 0 V260"/><path d="M240 0 V260"/><path d="M400 0 V260"/><path d="M560 0 V260"/><path d="M720 0 V260"/><path d="M880 0 V260"/><path d="M1040 0 V260"/>
  </g>
  <g fill="none" stroke="url(#glow)" stroke-width="2">
    <path d="M100 200 C200 140 340 140 440 200"/>
    <path d="M480 200 C620 120 780 120 940 200"/>
  </g>
  <text x="80" y="110" fill="#6cf3ff" font-family="Menlo, Consolas, 'Fira Code', monospace" font-size="22">developer / builder</text>
  <text x="80" y="145" fill="#ff9ee6" font-family="Menlo, Consolas, 'Fira Code', monospace" font-size="18">shipping reliable backend systems</text>
  <text x="80" y="180" fill="#8ddcff" font-family="Menlo, Consolas, 'Fira Code', monospace" font-size="16">api · infra · observability · dx</text>
</svg>
